<?xml version="1.0" standalone="no"?>
<!DOCTYPE svg PUBLIC "-//W3C//DTD SVG 20010904//EN"
 "http://www.w3.org/TR/2001/REC-SVG-20010904/DTD/svg10.dtd">
<svg version="1.0" xmlns="http://www.w3.org/2000/svg"
 width="1280.000000pt" height="1280.000000pt" viewBox="0 0 1280.000000 1280.000000"
 preserveAspectRatio="xMidYMid meet">
<metadata>
Created by potrace 1.15, written by Peter Selinger 2001-2017
</metadata>
<g transform="translate(0.000000,1280.000000) scale(0.100000,-0.100000)"
fill="#000000" stroke="none">
<path d="M6355 12790 c-11 -4 -31 -20 -45 -35 l-25 -27 -3 -943 -2 -943 -31
-6 c-18 -3 -60 -6 -94 -6 -74 0 -311 -24 -445 -45 -1031 -164 -1972 -687
-2660 -1478 -492 -567 -840 -1264 -990 -1982 -49 -239 -90 -545 -90 -681 0
-34 -3 -76 -6 -93 l-6 -31 -935 0 c-1042 0 -974 5 -1009 -68 -22 -47 -12 -98
26 -137 l30 -30 944 -3 944 -2 6 -31 c3 -18 6 -60 6 -94 0 -72 22 -294 44
-440 64 -421 198 -851 390 -1250 332 -689 859 -1299 1501 -1737 539 -368 1170
-617 1810 -714 139 -21 366 -44 434 -44 31 0 73 -3 93 -6 l38 -7 2 -943 3
-944 30 -30 c39 -38 90 -48 137 -26 73 35 68 -33 68 1009 l0 934 38 7 c20 3
64 6 97 6 136 0 443 41 680 90 523 109 1061 334 1510 633 407 271 812 651
1100 1032 441 585 731 1272 841 1990 23 147 44 351 44 425 0 36 3 82 6 102 l7
38 943 2 944 3 31 31 c38 39 49 97 25 142 -34 65 20 62 -1010 62 l-934 0 -6
63 c-2 34 -10 127 -16 207 -72 923 -457 1825 -1081 2535 -110 126 -326 340
-444 442 -495 426 -1084 740 -1713 913 -291 80 -715 149 -922 150 -36 0 -82 3
-102 6 l-38 7 0 934 c0 863 -1 937 -17 964 -28 48 -97 71 -148 49z m-75 -3149
l0 -960 -42 -5 c-447 -51 -760 -157 -1078 -363 -189 -123 -404 -317 -534 -480
-272 -345 -442 -746 -487 -1148 -6 -55 -13 -115 -15 -132 l-5 -33 -954 0 -955
0 0 79 c0 103 25 341 55 517 185 1096 812 2082 1732 2726 645 452 1427 717
2213 751 36 2 66 4 68 5 1 1 2 -430 2 -957z m546 934 c955 -101 1808 -498
2493 -1160 569 -550 968 -1243 1156 -2008 61 -247 115 -627 115 -808 l0 -79
-955 0 -954 0 -5 33 c-3 17 -8 64 -11 102 -4 39 -16 117 -26 175 -117 619
-490 1162 -1038 1510 -123 77 -326 172 -481 223 -179 60 -280 80 -557 113
l-43 5 0 955 0 954 83 0 c45 0 145 -7 223 -15z m-546 -3100 l0 -955 -955 0
-955 0 0 43 c0 111 52 356 111 523 232 660 821 1173 1504 1309 146 29 164 32
238 34 l57 1 0 -955z m531 921 c613 -124 1144 -536 1420 -1101 105 -216 179
-476 195 -688 l7 -87 -957 0 -956 0 0 956 0 957 83 -6 c46 -3 139 -17 208 -31z
m-2687 -2138 c3 -13 6 -42 6 -65 0 -123 73 -437 144 -618 267 -683 854 -1205
1552 -1381 131 -33 312 -64 375 -64 19 0 44 -3 57 -6 l22 -6 0 -954 0 -954
-79 0 c-80 0 -309 22 -430 40 -880 138 -1656 522 -2290 1135 -760 735 -1214
1726 -1269 2773 l-7 122 956 0 957 0 6 -22z m2156 -933 l0 -955 -40 0 c-111 0
-362 53 -526 111 -565 199 -1034 668 -1233 1233 -58 164 -111 415 -111 526 l0
40 955 0 955 0 0 -955z m2150 913 c0 -64 -26 -224 -55 -337 -82 -323 -241
-619 -466 -867 -238 -262 -544 -461 -878 -570 -123 -41 -321 -82 -431 -91
l-80 -6 0 957 0 956 955 0 955 0 0 -42z m2162 -25 c-10 -272 -60 -596 -137
-888 -402 -1528 -1659 -2717 -3210 -3035 -207 -43 -505 -79 -647 -80 l-78 0 0
954 0 954 23 6 c12 3 41 6 64 6 110 0 408 66 573 126 801 294 1389 1032 1481
1860 6 55 13 114 15 132 l5 32 957 0 957 0 -3 -67z"/>
</g>
</svg>
